<svg width="85" height="53" viewBox="0 0 85 53" fill="none" xmlns="http://www.w3.org/2000/svg">
<path d="M42.6641 42.88C44.0507 42.8267 45.1174 42.6667 45.8641 42.4C46.6374 42.1333 47.1707 41.7467 47.4641 41.24C47.7841 40.76 47.9441 40.1467 47.9441 39.4V18H54.9041V39.4C54.9041 41.5867 54.4507 43.4933 53.5441 45.12C52.6641 46.7467 51.4107 48.0267 49.7841 48.96C48.1574 49.8933 46.2107 50.4267 43.9441 50.56L42.6641 42.88Z" fill="#787878"/>
<path d="M15.8375 40C13.5442 40 11.5442 39.68 9.8375 39.04C8.1575 38.3733 6.77083 37.48 5.6775 36.36C4.58417 35.2133 3.77083 33.9333 3.2375 32.52C2.70417 31.08 2.4375 29.5733 2.4375 28C2.4375 26.56 2.65083 25.1067 3.0775 23.64C3.53083 22.1733 4.18417 20.7733 5.0375 19.44L10.3975 21.88C9.97083 22.76 9.65083 23.6133 9.4375 24.44C9.22417 25.24 9.1175 26.0133 9.1175 26.76C9.1175 27.7733 9.34417 28.68 9.7975 29.48C10.2508 30.2533 10.9575 30.8533 11.9175 31.28C12.9042 31.7067 14.1442 31.92 15.6375 31.92H32.5975V19H39.5175V40H15.8375ZM20.9975 52.08C19.8775 52.08 18.9575 51.72 18.2375 51C17.5175 50.28 17.1575 49.36 17.1575 48.24C17.1575 47.12 17.5175 46.2 18.2375 45.48C18.9575 44.76 19.8775 44.4 20.9975 44.4C22.1442 44.4 23.0642 44.76 23.7575 45.48C24.4775 46.2 24.8375 47.12 24.8375 48.24C24.8375 49.36 24.4775 50.28 23.7575 51C23.0642 51.72 22.1442 52.08 20.9975 52.08Z" fill="#787878"/>
<path d="M76.3563 43C76.3296 40.1733 75.8496 37.6667 74.9163 35.48C73.9829 33.2933 72.6229 31.4667 70.8363 30C69.0496 28.5067 66.8629 27.4533 64.2763 26.84L65.7563 19.32C69.3563 20.1467 72.4496 21.6667 75.0363 23.88C77.6496 26.0667 79.6763 28.7867 81.1163 32.04C82.5563 35.2933 83.2896 38.9467 83.3163 43H76.3563ZM61.4363 43V34.92H80.7563V43H61.4363Z" fill="#787878"/>
</svg>
